<svg width="126" height="25" viewBox="0 0 126 25" fill="none" xmlns="http://www.w3.org/2000/svg">
<path d="M12.792 4.704C10.552 4.704 8.78133 5.376 7.48 6.72C6.2 8.064 5.56 9.93067 5.56 12.32C5.56 14.6667 6.232 16.5227 7.576 17.888C8.92 19.2533 10.6587 19.936 12.792 19.936C14.648 19.936 16.4827 19.3493 18.296 18.176L19.832 22.144C17.6987 23.5947 15.1707 24.32 12.248 24.32C8.536 24.32 5.56 23.2427 3.32 21.088C1.10133 18.9333 -0.00799996 16.0107 -0.00799996 12.32C-0.00799996 8.58667 1.06933 5.65333 3.224 3.52C5.4 1.38667 8.408 0.32 12.248 0.32C15.1707 0.32 17.6987 1.04533 19.832 2.496L18.296 6.464C16.4827 5.29067 14.648 4.704 12.792 4.704ZM29.497 5.024V9.792H38.361V13.92H29.497V19.616H39.001V24H24.057V0.639999H39.001V5.024H29.497ZM43.557 24V0.639999H48.869L57.157 14.976H57.221V0.639999H62.533V24H57.221L48.933 9.664H48.869V24H43.557ZM85.1608 0.639999V5.152H78.6648V24H73.0968V5.152H66.6008V0.639999H85.1608ZM94.5573 15.36V24H89.2133V0.799999C91.5599 0.48 94.1199 0.32 96.8933 0.32C100.093 0.32 102.472 0.927999 104.029 2.144C105.608 3.33867 106.397 5.04533 106.397 7.264C106.397 8.69333 105.981 9.984 105.149 11.136C104.317 12.2667 103.219 13.0773 101.853 13.568V13.632C102.963 14.2507 103.869 15.52 104.573 17.44L107.037 24H101.437L99.2293 17.664C98.9306 16.768 98.5679 16.16 98.1413 15.84C97.7146 15.52 97.0533 15.36 96.1573 15.36H94.5573ZM94.5573 11.36H96.3493C97.8426 11.36 98.9839 11.0507 99.7733 10.432C100.563 9.792 100.957 8.90667 100.957 7.776C100.957 5.55733 99.4959 4.448 96.5733 4.448C95.8053 4.448 95.1333 4.512 94.5573 4.64V11.36ZM116.06 5.024V9.792H124.924V13.92H116.06V19.616H125.564V24H110.62V0.639999H125.564V5.024H116.06Z" fill="white"/>
</svg>
