<svg width="28" height="36" viewBox="0 0 28 36" fill="none" xmlns="http://www.w3.org/2000/svg">
<path d="M0.458008 35.0314C0.458008 31.492 1.86403 28.0976 4.36676 25.5949C6.86949 23.0921 10.2639 21.6861 13.8033 21.6861C17.3427 21.6861 20.7371 23.0921 23.2399 25.5949C25.7426 28.0976 27.1486 31.492 27.1486 35.0314H23.8123C23.8123 32.3769 22.7578 29.8311 20.8807 27.954C19.0037 26.077 16.4579 25.0225 13.8033 25.0225C11.1488 25.0225 8.60295 26.077 6.7259 27.954C4.84885 29.8311 3.79433 32.3769 3.79433 35.0314H0.458008ZM13.8033 20.018C8.27335 20.018 3.79433 15.5389 3.79433 10.009C3.79433 4.47902 8.27335 0 13.8033 0C19.3333 0 23.8123 4.47902 23.8123 10.009C23.8123 15.5389 19.3333 20.018 13.8033 20.018ZM13.8033 16.6816C17.49 16.6816 20.476 13.6956 20.476 10.009C20.476 6.32234 17.49 3.33633 13.8033 3.33633C10.1167 3.33633 7.13066 6.32234 7.13066 10.009C7.13066 13.6956 10.1167 16.6816 13.8033 16.6816Z" fill="white"/>
</svg>
